<svg xmlns="http://www.w3.org/2000/svg" width="189" height="173" viewBox="0 0 189 173" fill="none">
<g opacity="0.3">
<ellipse cx="1.24324" cy="1.23529" rx="1.24324" ry="1.23529" fill="#004163"/>
<ellipse cx="1.24324" cy="8.64704" rx="1.24324" ry="1.23529" fill="#004163"/>
<ellipse cx="1.24324" cy="16.0588" rx="1.24324" ry="1.23529" fill="#004163"/>
<ellipse cx="1.24324" cy="23.4706" rx="1.24324" ry="1.23529" fill="#004163"/>
<ellipse cx="1.24324" cy="30.8824" rx="1.24324" ry="1.23529" fill="#004163"/>
<ellipse cx="1.24324" cy="38.2941" rx="1.24324" ry="1.23529" fill="#004163"/>
<ellipse cx="1.24324" cy="45.7059" rx="1.24324" ry="1.23529" fill="#004163"/>
<ellipse cx="1.24324" cy="53.1176" rx="1.24324" ry="1.23529" fill="#004163"/>
<ellipse cx="1.24324" cy="60.5295" rx="1.24324" ry="1.23529" fill="#004163"/>
<ellipse cx="1.24324" cy="67.9411" rx="1.24324" ry="1.2353" fill="#004163"/>
<ellipse cx="1.24324" cy="75.353" rx="1.24324" ry="1.23529" fill="#004163"/>
<ellipse cx="1.24324" cy="82.7647" rx="1.24324" ry="1.23529" fill="#004163"/>
<ellipse cx="8.70223" cy="1.23529" rx="1.24324" ry="1.23529" fill="#004163"/>
<ellipse cx="8.70223" cy="8.64704" rx="1.24324" ry="1.23529" fill="#004163"/>
<ellipse cx="8.70223" cy="16.0588" rx="1.24324" ry="1.23529" fill="#004163"/>
<ellipse cx="8.70223" cy="23.4706" rx="1.24324" ry="1.23529" fill="#004163"/>
<ellipse cx="8.70223" cy="30.8824" rx="1.24324" ry="1.23529" fill="#004163"/>
<ellipse cx="8.70223" cy="38.2941" rx="1.24324" ry="1.23529" fill="#004163"/>
<ellipse cx="8.70223" cy="45.7059" rx="1.24324" ry="1.23529" fill="#004163"/>
<ellipse cx="8.70223" cy="53.1176" rx="1.24324" ry="1.23529" fill="#004163"/>
<ellipse cx="8.70223" cy="60.5295" rx="1.24324" ry="1.23529" fill="#004163"/>
<ellipse cx="8.70223" cy="67.9411" rx="1.24324" ry="1.2353" fill="#004163"/>
<ellipse cx="8.70223" cy="75.353" rx="1.24324" ry="1.23529" fill="#004163"/>
<ellipse cx="8.70223" cy="82.7647" rx="1.24324" ry="1.23529" fill="#004163"/>
<ellipse cx="16.1622" cy="1.23529" rx="1.24324" ry="1.23529" fill="#004163"/>
<ellipse cx="16.1622" cy="8.64704" rx="1.24324" ry="1.23529" fill="#004163"/>
<ellipse cx="16.1622" cy="16.0588" rx="1.24324" ry="1.23529" fill="#004163"/>
<ellipse cx="16.1622" cy="23.4706" rx="1.24324" ry="1.23529" fill="#004163"/>
<ellipse cx="16.1622" cy="30.8824" rx="1.24324" ry="1.23529" fill="#004163"/>
<ellipse cx="16.1622" cy="38.2941" rx="1.24324" ry="1.23529" fill="#004163"/>
<ellipse cx="16.1622" cy="45.7059" rx="1.24324" ry="1.23529" fill="#004163"/>
<ellipse cx="16.1622" cy="53.1176" rx="1.24324" ry="1.23529" fill="#004163"/>
<ellipse cx="16.1622" cy="60.5295" rx="1.24324" ry="1.23529" fill="#004163"/>
<ellipse cx="16.1622" cy="67.9411" rx="1.24324" ry="1.2353" fill="#004163"/>
<ellipse cx="16.1622" cy="75.353" rx="1.24324" ry="1.23529" fill="#004163"/>
<ellipse cx="16.1622" cy="82.7647" rx="1.24324" ry="1.23529" fill="#004163"/>
<ellipse cx="23.6222" cy="1.23529" rx="1.24324" ry="1.23529" fill="#004163"/>
<ellipse cx="23.6222" cy="8.64704" rx="1.24324" ry="1.23529" fill="#004163"/>
<ellipse cx="23.6222" cy="16.0588" rx="1.24324" ry="1.23529" fill="#004163"/>
<ellipse cx="23.6222" cy="23.4706" rx="1.24324" ry="1.23529" fill="#004163"/>
<ellipse cx="23.6222" cy="30.8824" rx="1.24324" ry="1.23529" fill="#004163"/>
<ellipse cx="23.6222" cy="38.2941" rx="1.24324" ry="1.23529" fill="#004163"/>
<ellipse cx="23.6222" cy="45.7059" rx="1.24324" ry="1.23529" fill="#004163"/>
<ellipse cx="23.6222" cy="53.1176" rx="1.24324" ry="1.23529" fill="#004163"/>
<ellipse cx="23.6222" cy="60.5295" rx="1.24324" ry="1.23529" fill="#004163"/>
<ellipse cx="23.6222" cy="67.9411" rx="1.24324" ry="1.2353" fill="#004163"/>
<ellipse cx="23.6222" cy="75.353" rx="1.24324" ry="1.23529" fill="#004163"/>
<ellipse cx="23.6222" cy="82.7647" rx="1.24324" ry="1.23529" fill="#004163"/>
<ellipse cx="31.0811" cy="1.23529" rx="1.24324" ry="1.23529" fill="#004163"/>
<ellipse cx="31.0811" cy="8.64704" rx="1.24324" ry="1.23529" fill="#004163"/>
<ellipse cx="31.0811" cy="16.0588" rx="1.24324" ry="1.23529" fill="#004163"/>
<ellipse cx="31.0811" cy="23.4706" rx="1.24324" ry="1.23529" fill="#004163"/>
<ellipse cx="31.0811" cy="30.8824" rx="1.24324" ry="1.23529" fill="#004163"/>
<ellipse cx="31.0811" cy="38.2941" rx="1.24324" ry="1.23529" fill="#004163"/>
<ellipse cx="31.0811" cy="45.7059" rx="1.24324" ry="1.23529" fill="#004163"/>
<ellipse cx="31.0811" cy="53.1176" rx="1.24324" ry="1.23529" fill="#004163"/>
<ellipse cx="31.0811" cy="60.5295" rx="1.24324" ry="1.23529" fill="#004163"/>
<ellipse cx="31.0811" cy="67.9411" rx="1.24324" ry="1.2353" fill="#004163"/>
<ellipse cx="31.0811" cy="75.353" rx="1.24324" ry="1.23529" fill="#004163"/>
<ellipse cx="31.0811" cy="82.7647" rx="1.24324" ry="1.23529" fill="#004163"/>
<ellipse cx="38.5401" cy="1.23529" rx="1.24324" ry="1.23529" fill="#004163"/>
<ellipse cx="38.5401" cy="8.64704" rx="1.24324" ry="1.23529" fill="#004163"/>
<ellipse cx="38.5401" cy="16.0588" rx="1.24324" ry="1.23529" fill="#004163"/>
<ellipse cx="38.5401" cy="23.4706" rx="1.24324" ry="1.23529" fill="#004163"/>
<ellipse cx="38.5401" cy="30.8824" rx="1.24324" ry="1.23529" fill="#004163"/>
<ellipse cx="38.5401" cy="38.2941" rx="1.24324" ry="1.23529" fill="#004163"/>
<ellipse cx="38.5401" cy="45.7059" rx="1.24324" ry="1.23529" fill="#004163"/>
<ellipse cx="38.5401" cy="53.1176" rx="1.24324" ry="1.23529" fill="#004163"/>
<ellipse cx="38.5401" cy="60.5295" rx="1.24324" ry="1.23529" fill="#004163"/>
<ellipse cx="38.5401" cy="67.9411" rx="1.24324" ry="1.2353" fill="#004163"/>
<ellipse cx="38.5401" cy="75.353" rx="1.24324" ry="1.23529" fill="#004163"/>
<ellipse cx="38.5401" cy="82.7647" rx="1.24324" ry="1.23529" fill="#004163"/>
<ellipse cx="46.0001" cy="1.23529" rx="1.24324" ry="1.23529" fill="#004163"/>
<ellipse cx="46.0001" cy="8.64704" rx="1.24324" ry="1.23529" fill="#004163"/>
<ellipse cx="46.0001" cy="16.0588" rx="1.24324" ry="1.23529" fill="#004163"/>
<ellipse cx="46.0001" cy="23.4706" rx="1.24324" ry="1.23529" fill="#004163"/>
<ellipse cx="46.0001" cy="30.8824" rx="1.24324" ry="1.23529" fill="#004163"/>
<ellipse cx="46.0001" cy="38.2941" rx="1.24324" ry="1.23529" fill="#004163"/>
<ellipse cx="46.0001" cy="45.7059" rx="1.24324" ry="1.23529" fill="#004163"/>
<ellipse cx="46.0001" cy="53.1176" rx="1.24324" ry="1.23529" fill="#004163"/>
<ellipse cx="46.0001" cy="60.5295" rx="1.24324" ry="1.23529" fill="#004163"/>
<ellipse cx="46.0001" cy="67.9411" rx="1.24324" ry="1.2353" fill="#004163"/>
<ellipse cx="46.0001" cy="75.353" rx="1.24324" ry="1.23529" fill="#004163"/>
<ellipse cx="46.0001" cy="82.7647" rx="1.24324" ry="1.23529" fill="#004163"/>
<ellipse cx="53.46" cy="1.23529" rx="1.24324" ry="1.23529" fill="#004163"/>
<ellipse cx="60.919" cy="1.23529" rx="1.24324" ry="1.23529" fill="#004163"/>
<ellipse cx="68.378" cy="1.23529" rx="1.24324" ry="1.23529" fill="#004163"/>
<ellipse cx="75.838" cy="1.23529" rx="1.24324" ry="1.23529" fill="#004163"/>
<ellipse cx="83.2979" cy="1.23529" rx="1.24324" ry="1.23529" fill="#004163"/>
<ellipse cx="90.7569" cy="1.23529" rx="1.24324" ry="1.23529" fill="#004163"/>
<ellipse cx="53.46" cy="8.64704" rx="1.24324" ry="1.23529" fill="#004163"/>
<ellipse cx="60.919" cy="8.64704" rx="1.24324" ry="1.23529" fill="#004163"/>
<ellipse cx="68.378" cy="8.64704" rx="1.24324" ry="1.23529" fill="#004163"/>
<ellipse cx="75.838" cy="8.64704" rx="1.24324" ry="1.23529" fill="#004163"/>
<ellipse cx="83.2979" cy="8.64704" rx="1.24324" ry="1.23529" fill="#004163"/>
<ellipse cx="90.7569" cy="8.64704" rx="1.24324" ry="1.23529" fill="#004163"/>
<ellipse cx="53.46" cy="16.0588" rx="1.24324" ry="1.23529" fill="#004163"/>
<ellipse cx="60.919" cy="16.0588" rx="1.24324" ry="1.23529" fill="#004163"/>
<ellipse cx="68.378" cy="16.0588" rx="1.24324" ry="1.23529" fill="#004163"/>
<ellipse cx="75.838" cy="16.0588" rx="1.24324" ry="1.23529" fill="#004163"/>
<ellipse cx="83.2979" cy="16.0588" rx="1.24324" ry="1.23529" fill="#004163"/>
<ellipse cx="90.7569" cy="16.0588" rx="1.24324" ry="1.23529" fill="#004163"/>
<ellipse cx="53.46" cy="23.4706" rx="1.24324" ry="1.23529" fill="#004163"/>
<ellipse cx="60.919" cy="23.4706" rx="1.24324" ry="1.23529" fill="#004163"/>
<ellipse cx="68.378" cy="23.4706" rx="1.24324" ry="1.23529" fill="#004163"/>
<ellipse cx="75.838" cy="23.4706" rx="1.24324" ry="1.23529" fill="#004163"/>
<ellipse cx="83.2979" cy="23.4706" rx="1.24324" ry="1.23529" fill="#004163"/>
<ellipse cx="90.7569" cy="23.4706" rx="1.24324" ry="1.23529" fill="#004163"/>
<ellipse cx="53.46" cy="30.8824" rx="1.24324" ry="1.23529" fill="#004163"/>
<ellipse cx="60.919" cy="30.8824" rx="1.24324" ry="1.23529" fill="#004163"/>
<ellipse cx="68.378" cy="30.8824" rx="1.24324" ry="1.23529" fill="#004163"/>
<ellipse cx="75.838" cy="30.8824" rx="1.24324" ry="1.23529" fill="#004163"/>
<ellipse cx="83.2979" cy="30.8824" rx="1.24324" ry="1.23529" fill="#004163"/>
<ellipse cx="90.7569" cy="30.8824" rx="1.24324" ry="1.23529" fill="#004163"/>
<ellipse cx="53.46" cy="38.2941" rx="1.24324" ry="1.23529" fill="#004163"/>
<ellipse cx="60.919" cy="38.2941" rx="1.24324" ry="1.23529" fill="#004163"/>
<ellipse cx="68.378" cy="38.2941" rx="1.24324" ry="1.23529" fill="#004163"/>
<ellipse cx="75.838" cy="38.2941" rx="1.24324" ry="1.23529" fill="#004163"/>
<ellipse cx="83.2979" cy="38.2941" rx="1.24324" ry="1.23529" fill="#004163"/>
<ellipse cx="90.7569" cy="38.2941" rx="1.24324" ry="1.23529" fill="#004163"/>
<ellipse cx="53.46" cy="45.7059" rx="1.24324" ry="1.23529" fill="#004163"/>
<ellipse cx="60.919" cy="45.7059" rx="1.24324" ry="1.23529" fill="#004163"/>
<ellipse cx="68.378" cy="45.7059" rx="1.24324" ry="1.23529" fill="#004163"/>
<ellipse cx="75.838" cy="45.7059" rx="1.24324" ry="1.23529" fill="#004163"/>
<ellipse cx="83.2979" cy="45.7059" rx="1.24324" ry="1.23529" fill="#004163"/>
<ellipse cx="90.7569" cy="45.7059" rx="1.24324" ry="1.23529" fill="#004163"/>
<ellipse cx="53.46" cy="53.1176" rx="1.24324" ry="1.23529" fill="#004163"/>
<ellipse cx="60.919" cy="53.1176" rx="1.24324" ry="1.23529" fill="#004163"/>
<ellipse cx="68.378" cy="53.1176" rx="1.24324" ry="1.23529" fill="#004163"/>
<ellipse cx="75.838" cy="53.1176" rx="1.24324" ry="1.23529" fill="#004163"/>
<ellipse cx="83.2979" cy="53.1176" rx="1.24324" ry="1.23529" fill="#004163"/>
<ellipse cx="90.7569" cy="53.1176" rx="1.24324" ry="1.23529" fill="#004163"/>
<ellipse cx="53.46" cy="60.5295" rx="1.24324" ry="1.23529" fill="#004163"/>
<ellipse cx="60.919" cy="60.5295" rx="1.24324" ry="1.23529" fill="#004163"/>
<ellipse cx="68.378" cy="60.5295" rx="1.24324" ry="1.23529" fill="#004163"/>
<ellipse cx="75.838" cy="60.5295" rx="1.24324" ry="1.23529" fill="#004163"/>
<ellipse cx="83.2979" cy="60.5295" rx="1.24324" ry="1.23529" fill="#004163"/>
<ellipse cx="90.7569" cy="60.5295" rx="1.24324" ry="1.23529" fill="#004163"/>
<ellipse cx="53.46" cy="67.9411" rx="1.24324" ry="1.2353" fill="#004163"/>
<ellipse cx="60.919" cy="67.9411" rx="1.24324" ry="1.2353" fill="#004163"/>
<ellipse cx="68.378" cy="67.9411" rx="1.24324" ry="1.2353" fill="#004163"/>
<ellipse cx="75.838" cy="67.9411" rx="1.24324" ry="1.2353" fill="#004163"/>
<ellipse cx="83.2979" cy="67.9411" rx="1.24324" ry="1.2353" fill="#004163"/>
<ellipse cx="90.7569" cy="67.9411" rx="1.24324" ry="1.2353" fill="#004163"/>
<ellipse cx="53.46" cy="75.353" rx="1.24324" ry="1.23529" fill="#004163"/>
<ellipse cx="60.919" cy="75.353" rx="1.24324" ry="1.23529" fill="#004163"/>
<ellipse cx="68.378" cy="75.353" rx="1.24324" ry="1.23529" fill="#004163"/>
<ellipse cx="75.838" cy="75.353" rx="1.24324" ry="1.23529" fill="#004163"/>
<ellipse cx="83.2979" cy="75.353" rx="1.24324" ry="1.23529" fill="#004163"/>
<ellipse cx="90.7569" cy="75.353" rx="1.24324" ry="1.23529" fill="#004163"/>
<ellipse cx="53.46" cy="82.7647" rx="1.24324" ry="1.23529" fill="#004163"/>
<ellipse cx="60.919" cy="82.7647" rx="1.24324" ry="1.23529" fill="#004163"/>
<ellipse cx="68.378" cy="82.7647" rx="1.24324" ry="1.23529" fill="#004163"/>
<ellipse cx="75.838" cy="82.7647" rx="1.24324" ry="1.23529" fill="#004163"/>
<ellipse cx="83.2979" cy="82.7647" rx="1.24324" ry="1.23529" fill="#004163"/>
<ellipse cx="90.7569" cy="82.7647" rx="1.24324" ry="1.23529" fill="#004163"/>
</g>
<g opacity="0.3">
<ellipse cx="1.24324" cy="90.2353" rx="1.24324" ry="1.23529" fill="#004163"/>
<ellipse cx="1.24324" cy="97.647" rx="1.24324" ry="1.23529" fill="#004163"/>
<ellipse cx="1.24324" cy="105.059" rx="1.24324" ry="1.23529" fill="#004163"/>
<ellipse cx="1.24324" cy="112.471" rx="1.24324" ry="1.23529" fill="#004163"/>
<ellipse cx="1.24324" cy="119.882" rx="1.24324" ry="1.23529" fill="#004163"/>
<ellipse cx="1.24324" cy="127.294" rx="1.24324" ry="1.23529" fill="#004163"/>
<ellipse cx="1.24324" cy="134.706" rx="1.24324" ry="1.23529" fill="#004163"/>
<ellipse cx="1.24324" cy="142.118" rx="1.24324" ry="1.23529" fill="#004163"/>
<ellipse cx="1.24324" cy="149.529" rx="1.24324" ry="1.23529" fill="#004163"/>
<ellipse cx="1.24324" cy="156.941" rx="1.24324" ry="1.2353" fill="#004163"/>
<ellipse cx="1.24324" cy="164.353" rx="1.24324" ry="1.23529" fill="#004163"/>
<ellipse cx="1.24324" cy="171.765" rx="1.24324" ry="1.23529" fill="#004163"/>
<ellipse cx="8.70223" cy="90.2353" rx="1.24324" ry="1.23529" fill="#004163"/>
<ellipse cx="8.70223" cy="97.647" rx="1.24324" ry="1.23529" fill="#004163"/>
<ellipse cx="8.70223" cy="105.059" rx="1.24324" ry="1.23529" fill="#004163"/>
<ellipse cx="8.70223" cy="112.471" rx="1.24324" ry="1.23529" fill="#004163"/>
<ellipse cx="8.70223" cy="119.882" rx="1.24324" ry="1.23529" fill="#004163"/>
<ellipse cx="8.70223" cy="127.294" rx="1.24324" ry="1.23529" fill="#004163"/>
<ellipse cx="8.70223" cy="134.706" rx="1.24324" ry="1.23529" fill="#004163"/>
<ellipse cx="8.70223" cy="142.118" rx="1.24324" ry="1.23529" fill="#004163"/>
<ellipse cx="8.70223" cy="149.529" rx="1.24324" ry="1.23529" fill="#004163"/>
<ellipse cx="8.70223" cy="156.941" rx="1.24324" ry="1.2353" fill="#004163"/>
<ellipse cx="8.70223" cy="164.353" rx="1.24324" ry="1.23529" fill="#004163"/>
<ellipse cx="8.70223" cy="171.765" rx="1.24324" ry="1.23529" fill="#004163"/>
<ellipse cx="16.1622" cy="90.2353" rx="1.24324" ry="1.23529" fill="#004163"/>
<ellipse cx="16.1622" cy="97.647" rx="1.24324" ry="1.23529" fill="#004163"/>
<ellipse cx="16.1622" cy="105.059" rx="1.24324" ry="1.23529" fill="#004163"/>
<ellipse cx="16.1622" cy="112.471" rx="1.24324" ry="1.23529" fill="#004163"/>
<ellipse cx="16.1622" cy="119.882" rx="1.24324" ry="1.23529" fill="#004163"/>
<ellipse cx="16.1622" cy="127.294" rx="1.24324" ry="1.23529" fill="#004163"/>
<ellipse cx="16.1622" cy="134.706" rx="1.24324" ry="1.23529" fill="#004163"/>
<ellipse cx="16.1622" cy="142.118" rx="1.24324" ry="1.23529" fill="#004163"/>
<ellipse cx="16.1622" cy="149.529" rx="1.24324" ry="1.23529" fill="#004163"/>
<ellipse cx="16.1622" cy="156.941" rx="1.24324" ry="1.2353" fill="#004163"/>
<ellipse cx="16.1622" cy="164.353" rx="1.24324" ry="1.23529" fill="#004163"/>
<ellipse cx="16.1622" cy="171.765" rx="1.24324" ry="1.23529" fill="#004163"/>
<ellipse cx="23.6222" cy="90.2353" rx="1.24324" ry="1.23529" fill="#004163"/>
<ellipse cx="23.6222" cy="97.647" rx="1.24324" ry="1.23529" fill="#004163"/>
<ellipse cx="23.6222" cy="105.059" rx="1.24324" ry="1.23529" fill="#004163"/>
<ellipse cx="23.6222" cy="112.471" rx="1.24324" ry="1.23529" fill="#004163"/>
<ellipse cx="23.6222" cy="119.882" rx="1.24324" ry="1.23529" fill="#004163"/>
<ellipse cx="23.6222" cy="127.294" rx="1.24324" ry="1.23529" fill="#004163"/>
<ellipse cx="23.6222" cy="134.706" rx="1.24324" ry="1.23529" fill="#004163"/>
<ellipse cx="23.6222" cy="142.118" rx="1.24324" ry="1.23529" fill="#004163"/>
<ellipse cx="23.6222" cy="149.529" rx="1.24324" ry="1.23529" fill="#004163"/>
<ellipse cx="23.6222" cy="156.941" rx="1.24324" ry="1.2353" fill="#004163"/>
<ellipse cx="23.6222" cy="164.353" rx="1.24324" ry="1.23529" fill="#004163"/>
<ellipse cx="23.6222" cy="171.765" rx="1.24324" ry="1.23529" fill="#004163"/>
<ellipse cx="31.0811" cy="90.2353" rx="1.24324" ry="1.23529" fill="#004163"/>
<ellipse cx="31.0811" cy="97.647" rx="1.24324" ry="1.23529" fill="#004163"/>
<ellipse cx="31.0811" cy="105.059" rx="1.24324" ry="1.23529" fill="#004163"/>
<ellipse cx="31.0811" cy="112.471" rx="1.24324" ry="1.23529" fill="#004163"/>
<ellipse cx="31.0811" cy="119.882" rx="1.24324" ry="1.23529" fill="#004163"/>
<ellipse cx="31.0811" cy="127.294" rx="1.24324" ry="1.23529" fill="#004163"/>
<ellipse cx="31.0811" cy="134.706" rx="1.24324" ry="1.23529" fill="#004163"/>
<ellipse cx="31.0811" cy="142.118" rx="1.24324" ry="1.23529" fill="#004163"/>
<ellipse cx="31.0811" cy="149.529" rx="1.24324" ry="1.23529" fill="#004163"/>
<ellipse cx="31.0811" cy="156.941" rx="1.24324" ry="1.2353" fill="#004163"/>
<ellipse cx="31.0811" cy="164.353" rx="1.24324" ry="1.23529" fill="#004163"/>
<ellipse cx="31.0811" cy="171.765" rx="1.24324" ry="1.23529" fill="#004163"/>
<ellipse cx="38.5401" cy="90.2353" rx="1.24324" ry="1.23529" fill="#004163"/>
<ellipse cx="38.5401" cy="97.647" rx="1.24324" ry="1.23529" fill="#004163"/>
<ellipse cx="38.5401" cy="105.059" rx="1.24324" ry="1.23529" fill="#004163"/>
<ellipse cx="38.5401" cy="112.471" rx="1.24324" ry="1.23529" fill="#004163"/>
<ellipse cx="38.5401" cy="119.882" rx="1.24324" ry="1.23529" fill="#004163"/>
<ellipse cx="38.5401" cy="127.294" rx="1.24324" ry="1.23529" fill="#004163"/>
<ellipse cx="38.5401" cy="134.706" rx="1.24324" ry="1.23529" fill="#004163"/>
<ellipse cx="38.5401" cy="142.118" rx="1.24324" ry="1.23529" fill="#004163"/>
<ellipse cx="38.5401" cy="149.529" rx="1.24324" ry="1.23529" fill="#004163"/>
<ellipse cx="38.5401" cy="156.941" rx="1.24324" ry="1.2353" fill="#004163"/>
<ellipse cx="38.5401" cy="164.353" rx="1.24324" ry="1.23529" fill="#004163"/>
<ellipse cx="38.5401" cy="171.765" rx="1.24324" ry="1.23529" fill="#004163"/>
<ellipse cx="46.0001" cy="90.2353" rx="1.24324" ry="1.23529" fill="#004163"/>
<ellipse cx="46.0001" cy="97.647" rx="1.24324" ry="1.23529" fill="#004163"/>
<ellipse cx="46.0001" cy="105.059" rx="1.24324" ry="1.23529" fill="#004163"/>
<ellipse cx="46.0001" cy="112.471" rx="1.24324" ry="1.23529" fill="#004163"/>
<ellipse cx="46.0001" cy="119.882" rx="1.24324" ry="1.23529" fill="#004163"/>
<ellipse cx="46.0001" cy="127.294" rx="1.24324" ry="1.23529" fill="#004163"/>
<ellipse cx="46.0001" cy="134.706" rx="1.24324" ry="1.23529" fill="#004163"/>
<ellipse cx="46.0001" cy="142.118" rx="1.24324" ry="1.23529" fill="#004163"/>
<ellipse cx="46.0001" cy="149.529" rx="1.24324" ry="1.23529" fill="#004163"/>
<ellipse cx="46.0001" cy="156.941" rx="1.24324" ry="1.2353" fill="#004163"/>
<ellipse cx="46.0001" cy="164.353" rx="1.24324" ry="1.23529" fill="#004163"/>
<ellipse cx="46.0001" cy="171.765" rx="1.24324" ry="1.23529" fill="#004163"/>
<ellipse cx="53.46" cy="90.2353" rx="1.24324" ry="1.23529" fill="#004163"/>
<ellipse cx="60.919" cy="90.2353" rx="1.24324" ry="1.23529" fill="#004163"/>
<ellipse cx="68.378" cy="90.2353" rx="1.24324" ry="1.23529" fill="#004163"/>
<ellipse cx="75.838" cy="90.2353" rx="1.24324" ry="1.23529" fill="#004163"/>
<ellipse cx="83.2979" cy="90.2353" rx="1.24324" ry="1.23529" fill="#004163"/>
<ellipse cx="90.7569" cy="90.2353" rx="1.24324" ry="1.23529" fill="#004163"/>
<ellipse cx="53.46" cy="97.647" rx="1.24324" ry="1.23529" fill="#004163"/>
<ellipse cx="60.919" cy="97.647" rx="1.24324" ry="1.23529" fill="#004163"/>
<ellipse cx="68.378" cy="97.647" rx="1.24324" ry="1.23529" fill="#004163"/>
<ellipse cx="75.838" cy="97.647" rx="1.24324" ry="1.23529" fill="#004163"/>
<ellipse cx="83.2979" cy="97.647" rx="1.24324" ry="1.23529" fill="#004163"/>
<ellipse cx="90.7569" cy="97.647" rx="1.24324" ry="1.23529" fill="#004163"/>
<ellipse cx="53.46" cy="105.059" rx="1.24324" ry="1.23529" fill="#004163"/>
<ellipse cx="60.919" cy="105.059" rx="1.24324" ry="1.23529" fill="#004163"/>
<ellipse cx="68.378" cy="105.059" rx="1.24324" ry="1.23529" fill="#004163"/>
<ellipse cx="75.838" cy="105.059" rx="1.24324" ry="1.23529" fill="#004163"/>
<ellipse cx="83.2979" cy="105.059" rx="1.24324" ry="1.23529" fill="#004163"/>
<ellipse cx="90.7569" cy="105.059" rx="1.24324" ry="1.23529" fill="#004163"/>
<ellipse cx="53.46" cy="112.471" rx="1.24324" ry="1.23529" fill="#004163"/>
<ellipse cx="60.919" cy="112.471" rx="1.24324" ry="1.23529" fill="#004163"/>
<ellipse cx="68.378" cy="112.471" rx="1.24324" ry="1.23529" fill="#004163"/>
<ellipse cx="75.838" cy="112.471" rx="1.24324" ry="1.23529" fill="#004163"/>
<ellipse cx="83.2979" cy="112.471" rx="1.24324" ry="1.23529" fill="#004163"/>
<ellipse cx="90.7569" cy="112.471" rx="1.24324" ry="1.23529" fill="#004163"/>
<ellipse cx="53.46" cy="119.882" rx="1.24324" ry="1.23529" fill="#004163"/>
<ellipse cx="60.919" cy="119.882" rx="1.24324" ry="1.23529" fill="#004163"/>
<ellipse cx="68.378" cy="119.882" rx="1.24324" ry="1.23529" fill="#004163"/>
<ellipse cx="75.838" cy="119.882" rx="1.24324" ry="1.23529" fill="#004163"/>
<ellipse cx="83.2979" cy="119.882" rx="1.24324" ry="1.23529" fill="#004163"/>
<ellipse cx="90.7569" cy="119.882" rx="1.24324" ry="1.23529" fill="#004163"/>
<ellipse cx="53.46" cy="127.294" rx="1.24324" ry="1.23529" fill="#004163"/>
<ellipse cx="60.919" cy="127.294" rx="1.24324" ry="1.23529" fill="#004163"/>
<ellipse cx="68.378" cy="127.294" rx="1.24324" ry="1.23529" fill="#004163"/>
<ellipse cx="75.838" cy="127.294" rx="1.24324" ry="1.23529" fill="#004163"/>
<ellipse cx="83.2979" cy="127.294" rx="1.24324" ry="1.23529" fill="#004163"/>
<ellipse cx="90.7569" cy="127.294" rx="1.24324" ry="1.23529" fill="#004163"/>
<ellipse cx="53.46" cy="134.706" rx="1.24324" ry="1.23529" fill="#004163"/>
<ellipse cx="60.919" cy="134.706" rx="1.24324" ry="1.23529" fill="#004163"/>
<ellipse cx="68.378" cy="134.706" rx="1.24324" ry="1.23529" fill="#004163"/>
<ellipse cx="75.838" cy="134.706" rx="1.24324" ry="1.23529" fill="#004163"/>
<ellipse cx="83.2979" cy="134.706" rx="1.24324" ry="1.23529" fill="#004163"/>
<ellipse cx="90.7569" cy="134.706" rx="1.24324" ry="1.23529" fill="#004163"/>
<ellipse cx="53.46" cy="142.118" rx="1.24324" ry="1.23529" fill="#004163"/>
<ellipse cx="60.919" cy="142.118" rx="1.24324" ry="1.23529" fill="#004163"/>
<ellipse cx="68.378" cy="142.118" rx="1.24324" ry="1.23529" fill="#004163"/>
<ellipse cx="75.838" cy="142.118" rx="1.24324" ry="1.23529" fill="#004163"/>
<ellipse cx="83.2979" cy="142.118" rx="1.24324" ry="1.23529" fill="#004163"/>
<ellipse cx="90.7569" cy="142.118" rx="1.24324" ry="1.23529" fill="#004163"/>
<ellipse cx="53.46" cy="149.529" rx="1.24324" ry="1.23529" fill="#004163"/>
<ellipse cx="60.919" cy="149.529" rx="1.24324" ry="1.23529" fill="#004163"/>
<ellipse cx="68.378" cy="149.529" rx="1.24324" ry="1.23529" fill="#004163"/>
<ellipse cx="75.838" cy="149.529" rx="1.24324" ry="1.23529" fill="#004163"/>
<ellipse cx="83.2979" cy="149.529" rx="1.24324" ry="1.23529" fill="#004163"/>
<ellipse cx="90.7569" cy="149.529" rx="1.24324" ry="1.23529" fill="#004163"/>
<ellipse cx="53.46" cy="156.941" rx="1.24324" ry="1.2353" fill="#004163"/>
<ellipse cx="60.919" cy="156.941" rx="1.24324" ry="1.2353" fill="#004163"/>
<ellipse cx="68.378" cy="156.941" rx="1.24324" ry="1.2353" fill="#004163"/>
<ellipse cx="75.838" cy="156.941" rx="1.24324" ry="1.2353" fill="#004163"/>
<ellipse cx="83.2979" cy="156.941" rx="1.24324" ry="1.2353" fill="#004163"/>
<ellipse cx="90.7569" cy="156.941" rx="1.24324" ry="1.2353" fill="#004163"/>
<ellipse cx="53.46" cy="164.353" rx="1.24324" ry="1.23529" fill="#004163"/>
<ellipse cx="60.919" cy="164.353" rx="1.24324" ry="1.23529" fill="#004163"/>
<ellipse cx="68.378" cy="164.353" rx="1.24324" ry="1.23529" fill="#004163"/>
<ellipse cx="75.838" cy="164.353" rx="1.24324" ry="1.23529" fill="#004163"/>
<ellipse cx="83.2979" cy="164.353" rx="1.24324" ry="1.23529" fill="#004163"/>
<ellipse cx="90.7569" cy="164.353" rx="1.24324" ry="1.23529" fill="#004163"/>
<ellipse cx="53.46" cy="171.765" rx="1.24324" ry="1.23529" fill="#004163"/>
<ellipse cx="60.919" cy="171.765" rx="1.24324" ry="1.23529" fill="#004163"/>
<ellipse cx="68.378" cy="171.765" rx="1.24324" ry="1.23529" fill="#004163"/>
<ellipse cx="75.838" cy="171.765" rx="1.24324" ry="1.23529" fill="#004163"/>
<ellipse cx="83.2979" cy="171.765" rx="1.24324" ry="1.23529" fill="#004163"/>
<ellipse cx="90.7569" cy="171.765" rx="1.24324" ry="1.23529" fill="#004163"/>
</g>
<g opacity="0.3">
<ellipse cx="98.2432" cy="1.23529" rx="1.24324" ry="1.23529" fill="#004163"/>
<ellipse cx="98.2432" cy="8.64704" rx="1.24324" ry="1.23529" fill="#004163"/>
<ellipse cx="98.2432" cy="16.0588" rx="1.24324" ry="1.23529" fill="#004163"/>
<ellipse cx="98.2432" cy="23.4706" rx="1.24324" ry="1.23529" fill="#004163"/>
<ellipse cx="98.2432" cy="30.8824" rx="1.24324" ry="1.23529" fill="#004163"/>
<ellipse cx="98.2432" cy="38.2941" rx="1.24324" ry="1.23529" fill="#004163"/>
<ellipse cx="98.2432" cy="45.7059" rx="1.24324" ry="1.23529" fill="#004163"/>
<ellipse cx="98.2432" cy="53.1176" rx="1.24324" ry="1.23529" fill="#004163"/>
<ellipse cx="98.2432" cy="60.5295" rx="1.24324" ry="1.23529" fill="#004163"/>
<ellipse cx="98.2432" cy="67.9411" rx="1.24324" ry="1.2353" fill="#004163"/>
<ellipse cx="98.2432" cy="75.353" rx="1.24324" ry="1.23529" fill="#004163"/>
<ellipse cx="98.2432" cy="82.7647" rx="1.24324" ry="1.23529" fill="#004163"/>
<ellipse cx="105.702" cy="1.23529" rx="1.24324" ry="1.23529" fill="#004163"/>
<ellipse cx="105.702" cy="8.64704" rx="1.24324" ry="1.23529" fill="#004163"/>
<ellipse cx="105.702" cy="16.0588" rx="1.24324" ry="1.23529" fill="#004163"/>
<ellipse cx="105.702" cy="23.4706" rx="1.24324" ry="1.23529" fill="#004163"/>
<ellipse cx="105.702" cy="30.8824" rx="1.24324" ry="1.23529" fill="#004163"/>
<ellipse cx="105.702" cy="38.2941" rx="1.24324" ry="1.23529" fill="#004163"/>
<ellipse cx="105.702" cy="45.7059" rx="1.24324" ry="1.23529" fill="#004163"/>
<ellipse cx="105.702" cy="53.1176" rx="1.24324" ry="1.23529" fill="#004163"/>
<ellipse cx="105.702" cy="60.5295" rx="1.24324" ry="1.23529" fill="#004163"/>
<ellipse cx="105.702" cy="67.9411" rx="1.24324" ry="1.2353" fill="#004163"/>
<ellipse cx="105.702" cy="75.353" rx="1.24324" ry="1.23529" fill="#004163"/>
<ellipse cx="105.702" cy="82.7647" rx="1.24324" ry="1.23529" fill="#004163"/>
<ellipse cx="113.162" cy="1.23529" rx="1.24324" ry="1.23529" fill="#004163"/>
<ellipse cx="113.162" cy="8.64704" rx="1.24324" ry="1.23529" fill="#004163"/>
<ellipse cx="113.162" cy="16.0588" rx="1.24324" ry="1.23529" fill="#004163"/>
<ellipse cx="113.162" cy="23.4706" rx="1.24324" ry="1.23529" fill="#004163"/>
<ellipse cx="113.162" cy="30.8824" rx="1.24324" ry="1.23529" fill="#004163"/>
<ellipse cx="113.162" cy="38.2941" rx="1.24324" ry="1.23529" fill="#004163"/>
<ellipse cx="113.162" cy="45.7059" rx="1.24324" ry="1.23529" fill="#004163"/>
<ellipse cx="113.162" cy="53.1176" rx="1.24324" ry="1.23529" fill="#004163"/>
<ellipse cx="113.162" cy="60.5295" rx="1.24324" ry="1.23529" fill="#004163"/>
<ellipse cx="113.162" cy="67.9411" rx="1.24324" ry="1.2353" fill="#004163"/>
<ellipse cx="113.162" cy="75.353" rx="1.24324" ry="1.23529" fill="#004163"/>
<ellipse cx="113.162" cy="82.7647" rx="1.24324" ry="1.23529" fill="#004163"/>
<ellipse cx="120.622" cy="1.23529" rx="1.24324" ry="1.23529" fill="#004163"/>
<ellipse cx="120.622" cy="8.64704" rx="1.24324" ry="1.23529" fill="#004163"/>
<ellipse cx="120.622" cy="16.0588" rx="1.24324" ry="1.23529" fill="#004163"/>
<ellipse cx="120.622" cy="23.4706" rx="1.24324" ry="1.23529" fill="#004163"/>
<ellipse cx="120.622" cy="30.8824" rx="1.24324" ry="1.23529" fill="#004163"/>
<ellipse cx="120.622" cy="38.2941" rx="1.24324" ry="1.23529" fill="#004163"/>
<ellipse cx="120.622" cy="45.7059" rx="1.24324" ry="1.23529" fill="#004163"/>
<ellipse cx="120.622" cy="53.1176" rx="1.24324" ry="1.23529" fill="#004163"/>
<ellipse cx="120.622" cy="60.5295" rx="1.24324" ry="1.23529" fill="#004163"/>
<ellipse cx="120.622" cy="67.9411" rx="1.24324" ry="1.2353" fill="#004163"/>
<ellipse cx="120.622" cy="75.353" rx="1.24324" ry="1.23529" fill="#004163"/>
<ellipse cx="120.622" cy="82.7647" rx="1.24324" ry="1.23529" fill="#004163"/>
<ellipse cx="128.081" cy="1.23529" rx="1.24324" ry="1.23529" fill="#004163"/>
<ellipse cx="128.081" cy="8.64704" rx="1.24324" ry="1.23529" fill="#004163"/>
<ellipse cx="128.081" cy="16.0588" rx="1.24324" ry="1.23529" fill="#004163"/>
<ellipse cx="128.081" cy="23.4706" rx="1.24324" ry="1.23529" fill="#004163"/>
<ellipse cx="128.081" cy="30.8824" rx="1.24324" ry="1.23529" fill="#004163"/>
<ellipse cx="128.081" cy="38.2941" rx="1.24324" ry="1.23529" fill="#004163"/>
<ellipse cx="128.081" cy="45.7059" rx="1.24324" ry="1.23529" fill="#004163"/>
<ellipse cx="128.081" cy="53.1176" rx="1.24324" ry="1.23529" fill="#004163"/>
<ellipse cx="128.081" cy="60.5295" rx="1.24324" ry="1.23529" fill="#004163"/>
<ellipse cx="128.081" cy="67.9411" rx="1.24324" ry="1.2353" fill="#004163"/>
<ellipse cx="128.081" cy="75.353" rx="1.24324" ry="1.23529" fill="#004163"/>
<ellipse cx="128.081" cy="82.7647" rx="1.24324" ry="1.23529" fill="#004163"/>
<ellipse cx="135.54" cy="1.23529" rx="1.24324" ry="1.23529" fill="#004163"/>
<ellipse cx="135.54" cy="8.64704" rx="1.24324" ry="1.23529" fill="#004163"/>
<ellipse cx="135.54" cy="16.0588" rx="1.24324" ry="1.23529" fill="#004163"/>
<ellipse cx="135.54" cy="23.4706" rx="1.24324" ry="1.23529" fill="#004163"/>
<ellipse cx="135.54" cy="30.8824" rx="1.24324" ry="1.23529" fill="#004163"/>
<ellipse cx="135.54" cy="38.2941" rx="1.24324" ry="1.23529" fill="#004163"/>
<ellipse cx="135.54" cy="45.7059" rx="1.24324" ry="1.23529" fill="#004163"/>
<ellipse cx="135.54" cy="53.1176" rx="1.24324" ry="1.23529" fill="#004163"/>
<ellipse cx="135.54" cy="60.5295" rx="1.24324" ry="1.23529" fill="#004163"/>
<ellipse cx="135.54" cy="67.9411" rx="1.24324" ry="1.2353" fill="#004163"/>
<ellipse cx="135.54" cy="75.353" rx="1.24324" ry="1.23529" fill="#004163"/>
<ellipse cx="135.54" cy="82.7647" rx="1.24324" ry="1.23529" fill="#004163"/>
<ellipse cx="143" cy="1.23529" rx="1.24324" ry="1.23529" fill="#004163"/>
<ellipse cx="143" cy="8.64704" rx="1.24324" ry="1.23529" fill="#004163"/>
<ellipse cx="143" cy="16.0588" rx="1.24324" ry="1.23529" fill="#004163"/>
<ellipse cx="143" cy="23.4706" rx="1.24324" ry="1.23529" fill="#004163"/>
<ellipse cx="143" cy="30.8824" rx="1.24324" ry="1.23529" fill="#004163"/>
<ellipse cx="143" cy="38.2941" rx="1.24324" ry="1.23529" fill="#004163"/>
<ellipse cx="143" cy="45.7059" rx="1.24324" ry="1.23529" fill="#004163"/>
<ellipse cx="143" cy="53.1176" rx="1.24324" ry="1.23529" fill="#004163"/>
<ellipse cx="143" cy="60.5295" rx="1.24324" ry="1.23529" fill="#004163"/>
<ellipse cx="143" cy="67.9411" rx="1.24324" ry="1.2353" fill="#004163"/>
<ellipse cx="143" cy="75.353" rx="1.24324" ry="1.23529" fill="#004163"/>
<ellipse cx="143" cy="82.7647" rx="1.24324" ry="1.23529" fill="#004163"/>
<ellipse cx="150.46" cy="1.23529" rx="1.24324" ry="1.23529" fill="#004163"/>
<ellipse cx="157.919" cy="1.23529" rx="1.24324" ry="1.23529" fill="#004163"/>
<ellipse cx="165.378" cy="1.23529" rx="1.24324" ry="1.23529" fill="#004163"/>
<ellipse cx="172.838" cy="1.23529" rx="1.24324" ry="1.23529" fill="#004163"/>
<ellipse cx="180.298" cy="1.23529" rx="1.24324" ry="1.23529" fill="#004163"/>
<ellipse cx="187.757" cy="1.23529" rx="1.24324" ry="1.23529" fill="#004163"/>
<ellipse cx="150.46" cy="8.64704" rx="1.24324" ry="1.23529" fill="#004163"/>
<ellipse cx="157.919" cy="8.64704" rx="1.24324" ry="1.23529" fill="#004163"/>
<ellipse cx="165.378" cy="8.64704" rx="1.24324" ry="1.23529" fill="#004163"/>
<ellipse cx="172.838" cy="8.64704" rx="1.24324" ry="1.23529" fill="#004163"/>
<ellipse cx="180.298" cy="8.64704" rx="1.24324" ry="1.23529" fill="#004163"/>
<ellipse cx="187.757" cy="8.64704" rx="1.24324" ry="1.23529" fill="#004163"/>
<ellipse cx="150.46" cy="16.0588" rx="1.24324" ry="1.23529" fill="#004163"/>
<ellipse cx="157.919" cy="16.0588" rx="1.24324" ry="1.23529" fill="#004163"/>
<ellipse cx="165.378" cy="16.0588" rx="1.24324" ry="1.23529" fill="#004163"/>
<ellipse cx="172.838" cy="16.0588" rx="1.24324" ry="1.23529" fill="#004163"/>
<ellipse cx="180.298" cy="16.0588" rx="1.24324" ry="1.23529" fill="#004163"/>
<ellipse cx="187.757" cy="16.0588" rx="1.24324" ry="1.23529" fill="#004163"/>
<ellipse cx="150.46" cy="23.4706" rx="1.24324" ry="1.23529" fill="#004163"/>
<ellipse cx="157.919" cy="23.4706" rx="1.24324" ry="1.23529" fill="#004163"/>
<ellipse cx="165.378" cy="23.4706" rx="1.24324" ry="1.23529" fill="#004163"/>
<ellipse cx="172.838" cy="23.4706" rx="1.24324" ry="1.23529" fill="#004163"/>
<ellipse cx="180.298" cy="23.4706" rx="1.24324" ry="1.23529" fill="#004163"/>
<ellipse cx="187.757" cy="23.4706" rx="1.24324" ry="1.23529" fill="#004163"/>
<ellipse cx="150.46" cy="30.8824" rx="1.24324" ry="1.23529" fill="#004163"/>
<ellipse cx="157.919" cy="30.8824" rx="1.24324" ry="1.23529" fill="#004163"/>
<ellipse cx="165.378" cy="30.8824" rx="1.24324" ry="1.23529" fill="#004163"/>
<ellipse cx="172.838" cy="30.8824" rx="1.24324" ry="1.23529" fill="#004163"/>
<ellipse cx="180.298" cy="30.8824" rx="1.24324" ry="1.23529" fill="#004163"/>
<ellipse cx="187.757" cy="30.8824" rx="1.24324" ry="1.23529" fill="#004163"/>
<ellipse cx="150.46" cy="38.2941" rx="1.24324" ry="1.23529" fill="#004163"/>
<ellipse cx="157.919" cy="38.2941" rx="1.24324" ry="1.23529" fill="#004163"/>
<ellipse cx="165.378" cy="38.2941" rx="1.24324" ry="1.23529" fill="#004163"/>
<ellipse cx="172.838" cy="38.2941" rx="1.24324" ry="1.23529" fill="#004163"/>
<ellipse cx="180.298" cy="38.2941" rx="1.24324" ry="1.23529" fill="#004163"/>
<ellipse cx="187.757" cy="38.2941" rx="1.24324" ry="1.23529" fill="#004163"/>
<ellipse cx="150.46" cy="45.7059" rx="1.24324" ry="1.23529" fill="#004163"/>
<ellipse cx="157.919" cy="45.7059" rx="1.24324" ry="1.23529" fill="#004163"/>
<ellipse cx="165.378" cy="45.7059" rx="1.24324" ry="1.23529" fill="#004163"/>
<ellipse cx="172.838" cy="45.7059" rx="1.24324" ry="1.23529" fill="#004163"/>
<ellipse cx="180.298" cy="45.7059" rx="1.24324" ry="1.23529" fill="#004163"/>
<ellipse cx="187.757" cy="45.7059" rx="1.24324" ry="1.23529" fill="#004163"/>
<ellipse cx="150.46" cy="53.1176" rx="1.24324" ry="1.23529" fill="#004163"/>
<ellipse cx="157.919" cy="53.1176" rx="1.24324" ry="1.23529" fill="#004163"/>
<ellipse cx="165.378" cy="53.1176" rx="1.24324" ry="1.23529" fill="#004163"/>
<ellipse cx="172.838" cy="53.1176" rx="1.24324" ry="1.23529" fill="#004163"/>
<ellipse cx="180.298" cy="53.1176" rx="1.24324" ry="1.23529" fill="#004163"/>
<ellipse cx="187.757" cy="53.1176" rx="1.24324" ry="1.23529" fill="#004163"/>
<ellipse cx="150.46" cy="60.5295" rx="1.24324" ry="1.23529" fill="#004163"/>
<ellipse cx="157.919" cy="60.5295" rx="1.24324" ry="1.23529" fill="#004163"/>
<ellipse cx="165.378" cy="60.5295" rx="1.24324" ry="1.23529" fill="#004163"/>
<ellipse cx="172.838" cy="60.5295" rx="1.24324" ry="1.23529" fill="#004163"/>
<ellipse cx="180.298" cy="60.5295" rx="1.24324" ry="1.23529" fill="#004163"/>
<ellipse cx="187.757" cy="60.5295" rx="1.24324" ry="1.23529" fill="#004163"/>
<ellipse cx="150.46" cy="67.9411" rx="1.24324" ry="1.2353" fill="#004163"/>
<ellipse cx="157.919" cy="67.9411" rx="1.24324" ry="1.2353" fill="#004163"/>
<ellipse cx="165.378" cy="67.9411" rx="1.24324" ry="1.2353" fill="#004163"/>
<ellipse cx="172.838" cy="67.9411" rx="1.24324" ry="1.2353" fill="#004163"/>
<ellipse cx="180.298" cy="67.9411" rx="1.24324" ry="1.2353" fill="#004163"/>
<ellipse cx="187.757" cy="67.9411" rx="1.24324" ry="1.2353" fill="#004163"/>
<ellipse cx="150.46" cy="75.353" rx="1.24324" ry="1.23529" fill="#004163"/>
<ellipse cx="157.919" cy="75.353" rx="1.24324" ry="1.23529" fill="#004163"/>
<ellipse cx="165.378" cy="75.353" rx="1.24324" ry="1.23529" fill="#004163"/>
<ellipse cx="172.838" cy="75.353" rx="1.24324" ry="1.23529" fill="#004163"/>
<ellipse cx="180.298" cy="75.353" rx="1.24324" ry="1.23529" fill="#004163"/>
<ellipse cx="187.757" cy="75.353" rx="1.24324" ry="1.23529" fill="#004163"/>
<ellipse cx="150.46" cy="82.7647" rx="1.24324" ry="1.23529" fill="#004163"/>
<ellipse cx="157.919" cy="82.7647" rx="1.24324" ry="1.23529" fill="#004163"/>
<ellipse cx="165.378" cy="82.7647" rx="1.24324" ry="1.23529" fill="#004163"/>
<ellipse cx="172.838" cy="82.7647" rx="1.24324" ry="1.23529" fill="#004163"/>
<ellipse cx="180.298" cy="82.7647" rx="1.24324" ry="1.23529" fill="#004163"/>
<ellipse cx="187.757" cy="82.7647" rx="1.24324" ry="1.23529" fill="#004163"/>
</g>
<g opacity="0.3">
<ellipse cx="98.2432" cy="90.2353" rx="1.24324" ry="1.23529" fill="#004163"/>
<ellipse cx="98.2432" cy="97.647" rx="1.24324" ry="1.23529" fill="#004163"/>
<ellipse cx="98.2432" cy="105.059" rx="1.24324" ry="1.23529" fill="#004163"/>
<ellipse cx="98.2432" cy="112.471" rx="1.24324" ry="1.23529" fill="#004163"/>
<ellipse cx="98.2432" cy="119.882" rx="1.24324" ry="1.23529" fill="#004163"/>
<ellipse cx="98.2432" cy="127.294" rx="1.24324" ry="1.23529" fill="#004163"/>
<ellipse cx="98.2432" cy="134.706" rx="1.24324" ry="1.23529" fill="#004163"/>
<ellipse cx="98.2432" cy="142.118" rx="1.24324" ry="1.23529" fill="#004163"/>
<ellipse cx="98.2432" cy="149.529" rx="1.24324" ry="1.23529" fill="#004163"/>
<ellipse cx="98.2432" cy="156.941" rx="1.24324" ry="1.2353" fill="#004163"/>
<ellipse cx="98.2432" cy="164.353" rx="1.24324" ry="1.23529" fill="#004163"/>
<ellipse cx="98.2432" cy="171.765" rx="1.24324" ry="1.23529" fill="#004163"/>
<ellipse cx="105.702" cy="90.2353" rx="1.24324" ry="1.23529" fill="#004163"/>
<ellipse cx="105.702" cy="97.647" rx="1.24324" ry="1.23529" fill="#004163"/>
<ellipse cx="105.702" cy="105.059" rx="1.24324" ry="1.23529" fill="#004163"/>
<ellipse cx="105.702" cy="112.471" rx="1.24324" ry="1.23529" fill="#004163"/>
<ellipse cx="105.702" cy="119.882" rx="1.24324" ry="1.23529" fill="#004163"/>
<ellipse cx="105.702" cy="127.294" rx="1.24324" ry="1.23529" fill="#004163"/>
<ellipse cx="105.702" cy="134.706" rx="1.24324" ry="1.23529" fill="#004163"/>
<ellipse cx="105.702" cy="142.118" rx="1.24324" ry="1.23529" fill="#004163"/>
<ellipse cx="105.702" cy="149.529" rx="1.24324" ry="1.23529" fill="#004163"/>
<ellipse cx="105.702" cy="156.941" rx="1.24324" ry="1.2353" fill="#004163"/>
<ellipse cx="105.702" cy="164.353" rx="1.24324" ry="1.23529" fill="#004163"/>
<ellipse cx="105.702" cy="171.765" rx="1.24324" ry="1.23529" fill="#004163"/>
<ellipse cx="113.162" cy="90.2353" rx="1.24324" ry="1.23529" fill="#004163"/>
<ellipse cx="113.162" cy="97.647" rx="1.24324" ry="1.23529" fill="#004163"/>
<ellipse cx="113.162" cy="105.059" rx="1.24324" ry="1.23529" fill="#004163"/>
<ellipse cx="113.162" cy="112.471" rx="1.24324" ry="1.23529" fill="#004163"/>
<ellipse cx="113.162" cy="119.882" rx="1.24324" ry="1.23529" fill="#004163"/>
<ellipse cx="113.162" cy="127.294" rx="1.24324" ry="1.23529" fill="#004163"/>
<ellipse cx="113.162" cy="134.706" rx="1.24324" ry="1.23529" fill="#004163"/>
<ellipse cx="113.162" cy="142.118" rx="1.24324" ry="1.23529" fill="#004163"/>
<ellipse cx="113.162" cy="149.529" rx="1.24324" ry="1.23529" fill="#004163"/>
<ellipse cx="113.162" cy="156.941" rx="1.24324" ry="1.2353" fill="#004163"/>
<ellipse cx="113.162" cy="164.353" rx="1.24324" ry="1.23529" fill="#004163"/>
<ellipse cx="113.162" cy="171.765" rx="1.24324" ry="1.23529" fill="#004163"/>
<ellipse cx="120.622" cy="90.2353" rx="1.24324" ry="1.23529" fill="#004163"/>
<ellipse cx="120.622" cy="97.647" rx="1.24324" ry="1.23529" fill="#004163"/>
<ellipse cx="120.622" cy="105.059" rx="1.24324" ry="1.23529" fill="#004163"/>
<ellipse cx="120.622" cy="112.471" rx="1.24324" ry="1.23529" fill="#004163"/>
<ellipse cx="120.622" cy="119.882" rx="1.24324" ry="1.23529" fill="#004163"/>
<ellipse cx="120.622" cy="127.294" rx="1.24324" ry="1.23529" fill="#004163"/>
<ellipse cx="120.622" cy="134.706" rx="1.24324" ry="1.23529" fill="#004163"/>
<ellipse cx="120.622" cy="142.118" rx="1.24324" ry="1.23529" fill="#004163"/>
<ellipse cx="120.622" cy="149.529" rx="1.24324" ry="1.23529" fill="#004163"/>
<ellipse cx="120.622" cy="156.941" rx="1.24324" ry="1.2353" fill="#004163"/>
<ellipse cx="120.622" cy="164.353" rx="1.24324" ry="1.23529" fill="#004163"/>
<ellipse cx="120.622" cy="171.765" rx="1.24324" ry="1.23529" fill="#004163"/>
<ellipse cx="128.081" cy="90.2353" rx="1.24324" ry="1.23529" fill="#004163"/>
<ellipse cx="128.081" cy="97.647" rx="1.24324" ry="1.23529" fill="#004163"/>
<ellipse cx="128.081" cy="105.059" rx="1.24324" ry="1.23529" fill="#004163"/>
<ellipse cx="128.081" cy="112.471" rx="1.24324" ry="1.23529" fill="#004163"/>
<ellipse cx="128.081" cy="119.882" rx="1.24324" ry="1.23529" fill="#004163"/>
<ellipse cx="128.081" cy="127.294" rx="1.24324" ry="1.23529" fill="#004163"/>
<ellipse cx="128.081" cy="134.706" rx="1.24324" ry="1.23529" fill="#004163"/>
<ellipse cx="128.081" cy="142.118" rx="1.24324" ry="1.23529" fill="#004163"/>
<ellipse cx="128.081" cy="149.529" rx="1.24324" ry="1.23529" fill="#004163"/>
<ellipse cx="128.081" cy="156.941" rx="1.24324" ry="1.2353" fill="#004163"/>
<ellipse cx="128.081" cy="164.353" rx="1.24324" ry="1.23529" fill="#004163"/>
<ellipse cx="128.081" cy="171.765" rx="1.24324" ry="1.23529" fill="#004163"/>
<ellipse cx="135.54" cy="90.2353" rx="1.24324" ry="1.23529" fill="#004163"/>
<ellipse cx="135.54" cy="97.647" rx="1.24324" ry="1.23529" fill="#004163"/>
<ellipse cx="135.54" cy="105.059" rx="1.24324" ry="1.23529" fill="#004163"/>
<ellipse cx="135.54" cy="112.471" rx="1.24324" ry="1.23529" fill="#004163"/>
<ellipse cx="135.54" cy="119.882" rx="1.24324" ry="1.23529" fill="#004163"/>
<ellipse cx="135.54" cy="127.294" rx="1.24324" ry="1.23529" fill="#004163"/>
<ellipse cx="135.54" cy="134.706" rx="1.24324" ry="1.23529" fill="#004163"/>
<ellipse cx="135.54" cy="142.118" rx="1.24324" ry="1.23529" fill="#004163"/>
<ellipse cx="135.54" cy="149.529" rx="1.24324" ry="1.23529" fill="#004163"/>
<ellipse cx="135.54" cy="156.941" rx="1.24324" ry="1.2353" fill="#004163"/>
<ellipse cx="135.54" cy="164.353" rx="1.24324" ry="1.23529" fill="#004163"/>
<ellipse cx="135.54" cy="171.765" rx="1.24324" ry="1.23529" fill="#004163"/>
<ellipse cx="143" cy="90.2353" rx="1.24324" ry="1.23529" fill="#004163"/>
<ellipse cx="143" cy="97.647" rx="1.24324" ry="1.23529" fill="#004163"/>
<ellipse cx="143" cy="105.059" rx="1.24324" ry="1.23529" fill="#004163"/>
<ellipse cx="143" cy="112.471" rx="1.24324" ry="1.23529" fill="#004163"/>
<ellipse cx="143" cy="119.882" rx="1.24324" ry="1.23529" fill="#004163"/>
<ellipse cx="143" cy="127.294" rx="1.24324" ry="1.23529" fill="#004163"/>
<ellipse cx="143" cy="134.706" rx="1.24324" ry="1.23529" fill="#004163"/>
<ellipse cx="143" cy="142.118" rx="1.24324" ry="1.23529" fill="#004163"/>
<ellipse cx="143" cy="149.529" rx="1.24324" ry="1.23529" fill="#004163"/>
<ellipse cx="143" cy="156.941" rx="1.24324" ry="1.2353" fill="#004163"/>
<ellipse cx="143" cy="164.353" rx="1.24324" ry="1.23529" fill="#004163"/>
<ellipse cx="143" cy="171.765" rx="1.24324" ry="1.23529" fill="#004163"/>
<ellipse cx="150.46" cy="90.2353" rx="1.24324" ry="1.23529" fill="#004163"/>
<ellipse cx="157.919" cy="90.2353" rx="1.24324" ry="1.23529" fill="#004163"/>
<ellipse cx="165.378" cy="90.2353" rx="1.24324" ry="1.23529" fill="#004163"/>
<ellipse cx="172.838" cy="90.2353" rx="1.24324" ry="1.23529" fill="#004163"/>
<ellipse cx="180.298" cy="90.2353" rx="1.24324" ry="1.23529" fill="#004163"/>
<ellipse cx="187.757" cy="90.2353" rx="1.24324" ry="1.23529" fill="#004163"/>
<ellipse cx="150.46" cy="97.647" rx="1.24324" ry="1.23529" fill="#004163"/>
<ellipse cx="157.919" cy="97.647" rx="1.24324" ry="1.23529" fill="#004163"/>
<ellipse cx="165.378" cy="97.647" rx="1.24324" ry="1.23529" fill="#004163"/>
<ellipse cx="172.838" cy="97.647" rx="1.24324" ry="1.23529" fill="#004163"/>
<ellipse cx="180.298" cy="97.647" rx="1.24324" ry="1.23529" fill="#004163"/>
<ellipse cx="187.757" cy="97.647" rx="1.24324" ry="1.23529" fill="#004163"/>
<ellipse cx="150.46" cy="105.059" rx="1.24324" ry="1.23529" fill="#004163"/>
<ellipse cx="157.919" cy="105.059" rx="1.24324" ry="1.23529" fill="#004163"/>
<ellipse cx="165.378" cy="105.059" rx="1.24324" ry="1.23529" fill="#004163"/>
<ellipse cx="172.838" cy="105.059" rx="1.24324" ry="1.23529" fill="#004163"/>
<ellipse cx="180.298" cy="105.059" rx="1.24324" ry="1.23529" fill="#004163"/>
<ellipse cx="187.757" cy="105.059" rx="1.24324" ry="1.23529" fill="#004163"/>
<ellipse cx="150.46" cy="112.471" rx="1.24324" ry="1.23529" fill="#004163"/>
<ellipse cx="157.919" cy="112.471" rx="1.24324" ry="1.23529" fill="#004163"/>
<ellipse cx="165.378" cy="112.471" rx="1.24324" ry="1.23529" fill="#004163"/>
<ellipse cx="172.838" cy="112.471" rx="1.24324" ry="1.23529" fill="#004163"/>
<ellipse cx="180.298" cy="112.471" rx="1.24324" ry="1.23529" fill="#004163"/>
<ellipse cx="187.757" cy="112.471" rx="1.24324" ry="1.23529" fill="#004163"/>
<ellipse cx="150.46" cy="119.882" rx="1.24324" ry="1.23529" fill="#004163"/>
<ellipse cx="157.919" cy="119.882" rx="1.24324" ry="1.23529" fill="#004163"/>
<ellipse cx="165.378" cy="119.882" rx="1.24324" ry="1.23529" fill="#004163"/>
<ellipse cx="172.838" cy="119.882" rx="1.24324" ry="1.23529" fill="#004163"/>
<ellipse cx="180.298" cy="119.882" rx="1.24324" ry="1.23529" fill="#004163"/>
<ellipse cx="187.757" cy="119.882" rx="1.24324" ry="1.23529" fill="#004163"/>
<ellipse cx="150.46" cy="127.294" rx="1.24324" ry="1.23529" fill="#004163"/>
<ellipse cx="157.919" cy="127.294" rx="1.24324" ry="1.23529" fill="#004163"/>
<ellipse cx="165.378" cy="127.294" rx="1.24324" ry="1.23529" fill="#004163"/>
<ellipse cx="172.838" cy="127.294" rx="1.24324" ry="1.23529" fill="#004163"/>
<ellipse cx="180.298" cy="127.294" rx="1.24324" ry="1.23529" fill="#004163"/>
<ellipse cx="187.757" cy="127.294" rx="1.24324" ry="1.23529" fill="#004163"/>
<ellipse cx="150.46" cy="134.706" rx="1.24324" ry="1.23529" fill="#004163"/>
<ellipse cx="157.919" cy="134.706" rx="1.24324" ry="1.23529" fill="#004163"/>
<ellipse cx="165.378" cy="134.706" rx="1.24324" ry="1.23529" fill="#004163"/>
<ellipse cx="172.838" cy="134.706" rx="1.24324" ry="1.23529" fill="#004163"/>
<ellipse cx="180.298" cy="134.706" rx="1.24324" ry="1.23529" fill="#004163"/>
<ellipse cx="187.757" cy="134.706" rx="1.24324" ry="1.23529" fill="#004163"/>
<ellipse cx="150.46" cy="142.118" rx="1.24324" ry="1.23529" fill="#004163"/>
<ellipse cx="157.919" cy="142.118" rx="1.24324" ry="1.23529" fill="#004163"/>
<ellipse cx="165.378" cy="142.118" rx="1.24324" ry="1.23529" fill="#004163"/>
<ellipse cx="172.838" cy="142.118" rx="1.24324" ry="1.23529" fill="#004163"/>
<ellipse cx="180.298" cy="142.118" rx="1.24324" ry="1.23529" fill="#004163"/>
<ellipse cx="187.757" cy="142.118" rx="1.24324" ry="1.23529" fill="#004163"/>
<ellipse cx="150.46" cy="149.529" rx="1.24324" ry="1.23529" fill="#004163"/>
<ellipse cx="157.919" cy="149.529" rx="1.24324" ry="1.23529" fill="#004163"/>
<ellipse cx="165.378" cy="149.529" rx="1.24324" ry="1.23529" fill="#004163"/>
<ellipse cx="172.838" cy="149.529" rx="1.24324" ry="1.23529" fill="#004163"/>
<ellipse cx="180.298" cy="149.529" rx="1.24324" ry="1.23529" fill="#004163"/>
<ellipse cx="187.757" cy="149.529" rx="1.24324" ry="1.23529" fill="#004163"/>
<ellipse cx="150.46" cy="156.941" rx="1.24324" ry="1.2353" fill="#004163"/>
<ellipse cx="157.919" cy="156.941" rx="1.24324" ry="1.2353" fill="#004163"/>
<ellipse cx="165.378" cy="156.941" rx="1.24324" ry="1.2353" fill="#004163"/>
<ellipse cx="172.838" cy="156.941" rx="1.24324" ry="1.2353" fill="#004163"/>
<ellipse cx="180.298" cy="156.941" rx="1.24324" ry="1.2353" fill="#004163"/>
<ellipse cx="187.757" cy="156.941" rx="1.24324" ry="1.2353" fill="#004163"/>
<ellipse cx="150.46" cy="164.353" rx="1.24324" ry="1.23529" fill="#004163"/>
<ellipse cx="157.919" cy="164.353" rx="1.24324" ry="1.23529" fill="#004163"/>
<ellipse cx="165.378" cy="164.353" rx="1.24324" ry="1.23529" fill="#004163"/>
<ellipse cx="172.838" cy="164.353" rx="1.24324" ry="1.23529" fill="#004163"/>
<ellipse cx="180.298" cy="164.353" rx="1.24324" ry="1.23529" fill="#004163"/>
<ellipse cx="187.757" cy="164.353" rx="1.24324" ry="1.23529" fill="#004163"/>
<ellipse cx="150.46" cy="171.765" rx="1.24324" ry="1.23529" fill="#004163"/>
<ellipse cx="157.919" cy="171.765" rx="1.24324" ry="1.23529" fill="#004163"/>
<ellipse cx="165.378" cy="171.765" rx="1.24324" ry="1.23529" fill="#004163"/>
<ellipse cx="172.838" cy="171.765" rx="1.24324" ry="1.23529" fill="#004163"/>
<ellipse cx="180.298" cy="171.765" rx="1.24324" ry="1.23529" fill="#004163"/>
<ellipse cx="187.757" cy="171.765" rx="1.24324" ry="1.23529" fill="#004163"/>
</g>
</svg>